<svg width="10" height="11" viewBox="0 0 10 11" fill="none" xmlns="http://www.w3.org/2000/svg">
<path d="M3.88889 9.95238H6.11111C6.11111 10.5286 5.61111 11 5 11C4.38889 11 3.88889 10.5286 3.88889 9.95238ZM10 8.90476V9.42857H0V8.90476L1.11111 7.85714V4.71429C1.11111 3.09048 2.22222 1.67619 3.88889 1.20476V1.04762C3.88889 0.471429 4.38889 0 5 0C5.61111 0 6.11111 0.471429 6.11111 1.04762V1.20476C7.77778 1.67619 8.88889 3.09048 8.88889 4.71429V7.85714L10 8.90476ZM7.77778 4.71429C7.77778 3.24762 6.55556 2.09524 5 2.09524C3.44444 2.09524 2.22222 3.24762 2.22222 4.71429V8.38095H7.77778V4.71429Z" fill="white"/>
</svg>
